<?xml version="1.0" encoding="iso-8859-1"?>
<!-- Generator: Adobe Illustrator 19.0.0, SVG Export Plug-In . SVG Version: 6.00 Build 0)  -->
<svg version="1.1" id="Capa_1" xmlns="http://www.w3.org/2000/svg" xmlns:xlink="http://www.w3.org/1999/xlink" x="0px" y="0px"
	 viewBox="0 0 496 496" style="enable-background:new 0 0 496 496;" xml:space="preserve">
<g>
	<g>
		<g>
			<path d="M351.08,207.952l1.832-15.896L336,190.096v-23.888l15.08,1.744l1.832-15.896L336,150.096V104h-32.224
				c-1.008-17.568-5.304-27.168-9.144-35.76c-0.632-1.432-1.248-2.832-1.84-4.24H336V16h-48c0-8.824-7.176-16-16-16h-48
				c-8.824,0-16,7.176-16,16h-48v48h43.208c-0.592,1.408-1.208,2.808-1.848,4.24c-3.84,8.592-8.136,18.192-9.144,35.76H160v25.792
				l-15.08-1.744l-1.832,15.896l16.912,1.96v23.888l-15.08-1.744l-1.832,15.896l16.912,1.96v23.888l-15.08-1.744l-1.832,15.896
				l16.912,1.96v23.888l-15.08-1.744l-1.832,15.896l16.912,1.96v23.888l-15.08-1.744l-1.832,15.896l16.912,1.96v23.888l-15.08-1.744
				l-1.832,15.896l16.912,1.96V392h176v-25.792l15.08,1.744l1.832-15.896L336,350.096v-23.888l15.08,1.744l1.832-15.896L336,310.096
				v-23.888l15.08,1.744l1.832-15.896L336,270.096v-23.888l15.08,1.744l1.832-15.896L336,230.096v-23.888L351.08,207.952z M288,32
				h32v16h-31.552c-0.272-2.416-0.448-5.024-0.448-8V32z M215.976,74.768C219.92,65.944,224,56.816,224,40V16h48v24
				c0,16.816,4.08,25.944,8.024,34.768c3.488,7.784,6.776,15.272,7.696,29.232h-79.448C209.192,90.04,212.488,82.552,215.976,74.768
				z M176,48V32h32v8c0,2.976-0.176,5.584-0.448,8H176z M320,376H176v-28.256l144,16.616V376z M320,348.256L176,331.64v-23.888
				l144,16.616V348.256z M320,308.256L176,291.64v-23.888l144,16.616V308.256z M320,268.256L176,251.64v-23.888l144,16.616V268.256z
				 M320,228.256L176,211.64v-23.888l144,16.616V228.256z M320,188.248l-144-16.616v-23.888l144,16.616V188.248z M320,148.256
				L176,131.64V120h144V148.256z"/>
			<path d="M304,408h-16v64c0,4.408-3.592,8-8,8h-64c-4.408,0-8-3.592-8-8v-64h-16v16h-48v48h48c0,13.232,10.768,24,24,24h64
				c13.232,0,24-10.768,24-24h48v-48h-48V408z M192,456h-32v-16h32V456z M336,440v16h-32v-16H336z"/>
		</g>
	</g>
</g>
<g>
</g>
<g>
</g>
<g>
</g>
<g>
</g>
<g>
</g>
<g>
</g>
<g>
</g>
<g>
</g>
<g>
</g>
<g>
</g>
<g>
</g>
<g>
</g>
<g>
</g>
<g>
</g>
<g>
</g>
</svg>
